<svg width="24" height="24" viewBox="0 0 24 24" fill="none" xmlns="http://www.w3.org/2000/svg">
  <path fill-rule="evenodd" clip-rule="evenodd" d="M12.2199 6.32388C12.1226 6.15871 11.8774 6.1587 11.7801 6.32388L5.23564 17.4318C5.14436 17.5868 5.25036 17.8 5.45553 17.8H18.5445C18.7496 17.8 18.8556 17.5868 18.7644 17.4318L12.2199 6.32388ZM13.2538 5.71474C12.6923 4.76175 11.3077 4.76175 10.7462 5.71474L4.20174 16.8227C3.63379 17.7867 4.33248 19 5.45553 19H18.5445C19.6675 19 20.3662 17.7867 19.7983 16.8227L13.2538 5.71474ZM11.4 14V9.5H12.6V14H11.4ZM12 16.4C12.3866 16.4 12.7 16.0866 12.7 15.7C12.7 15.3134 12.3866 15 12 15C11.6134 15 11.3 15.3134 11.3 15.7C11.3 16.0866 11.6134 16.4 12 16.4Z" fill="currentColor"/>
</svg>
